<mxfile host="Electron" modified="2024-06-29T16:01:43.899Z" agent="Mozilla/5.0 (Windows NT 10.0; Win64; x64) AppleWebKit/537.36 (KHTML, like Gecko) draw.io/24.6.4 Chrome/124.0.6367.207 Electron/30.0.6 Safari/537.36" etag="J4kFWtvLofSkFV9upNHm" version="24.6.4" type="device">
  <diagram id="TOiv-1l6HBIcT-8o6cpb" name="Page-1">
    <mxGraphModel dx="780" dy="496" grid="1" gridSize="10" guides="1" tooltips="1" connect="1" arrows="1" fold="1" page="1" pageScale="1" pageWidth="850" pageHeight="1100" math="0" shadow="0">
      <root>
        <mxCell id="0" />
        <mxCell id="1" parent="0" />
        <mxCell id="5qAP9QhCrk0MBR04qnXz-5" value="" style="rounded=1;whiteSpace=wrap;html=1;" parent="1" vertex="1">
          <mxGeometry x="110" y="90" width="620" height="390" as="geometry" />
        </mxCell>
        <mxCell id="5qAP9QhCrk0MBR04qnXz-6" value="" style="rounded=1;whiteSpace=wrap;html=1;" parent="1" vertex="1">
          <mxGeometry x="180" y="140" width="480" height="290" as="geometry" />
        </mxCell>
        <mxCell id="5qAP9QhCrk0MBR04qnXz-7" value="" style="endArrow=none;html=1;rounded=0;entryX=0.5;entryY=1;entryDx=0;entryDy=0;exitX=0.5;exitY=0;exitDx=0;exitDy=0;" parent="1" source="5qAP9QhCrk0MBR04qnXz-6" target="5qAP9QhCrk0MBR04qnXz-6" edge="1">
          <mxGeometry width="50" height="50" relative="1" as="geometry">
            <mxPoint x="400" y="320" as="sourcePoint" />
            <mxPoint x="440" y="200" as="targetPoint" />
          </mxGeometry>
        </mxCell>
        <mxCell id="5qAP9QhCrk0MBR04qnXz-8" value="image" style="text;html=1;align=center;verticalAlign=middle;whiteSpace=wrap;rounded=0;" parent="1" vertex="1">
          <mxGeometry x="490" y="260" width="60" height="30" as="geometry" />
        </mxCell>
        <mxCell id="5qAP9QhCrk0MBR04qnXz-10" value="image" style="text;html=1;align=center;verticalAlign=middle;whiteSpace=wrap;rounded=0;" parent="1" vertex="1">
          <mxGeometry x="390" y="100" width="60" height="30" as="geometry" />
        </mxCell>
        <mxCell id="5qAP9QhCrk0MBR04qnXz-11" value="" style="rounded=1;whiteSpace=wrap;html=1;glass=0;shadow=0;perimeterSpacing=1;" parent="1" vertex="1">
          <mxGeometry x="115" y="590" width="620" height="390" as="geometry" />
        </mxCell>
        <mxCell id="5qAP9QhCrk0MBR04qnXz-12" value="" style="endArrow=none;html=1;rounded=0;exitX=0.169;exitY=0;exitDx=0;exitDy=0;exitPerimeter=0;entryX=0.172;entryY=1.003;entryDx=0;entryDy=0;entryPerimeter=0;" parent="1" edge="1">
          <mxGeometry width="50" height="50" relative="1" as="geometry">
            <mxPoint x="249.99999999999997" y="590" as="sourcePoint" />
            <mxPoint x="251.85999999999999" y="981.1700000000001" as="targetPoint" />
          </mxGeometry>
        </mxCell>
        <mxCell id="5qAP9QhCrk0MBR04qnXz-13" value="" style="endArrow=none;html=1;rounded=0;exitX=0.169;exitY=0;exitDx=0;exitDy=0;exitPerimeter=0;entryX=0.172;entryY=1.003;entryDx=0;entryDy=0;entryPerimeter=0;" parent="1" edge="1">
          <mxGeometry width="50" height="50" relative="1" as="geometry">
            <mxPoint x="550" y="588.83" as="sourcePoint" />
            <mxPoint x="551.86" y="980.0000000000001" as="targetPoint" />
          </mxGeometry>
        </mxCell>
        <mxCell id="2m3MYsOcYt7blPg2YDqS-1" value="" style="rounded=0;whiteSpace=wrap;html=1;" vertex="1" parent="1">
          <mxGeometry x="220" y="160" width="160" height="30" as="geometry" />
        </mxCell>
        <mxCell id="2m3MYsOcYt7blPg2YDqS-2" value="company name" style="text;html=1;align=center;verticalAlign=middle;whiteSpace=wrap;rounded=0;" vertex="1" parent="1">
          <mxGeometry x="240" y="160" width="130" height="30" as="geometry" />
        </mxCell>
        <mxCell id="2m3MYsOcYt7blPg2YDqS-3" value="" style="rounded=1;whiteSpace=wrap;html=1;" vertex="1" parent="1">
          <mxGeometry x="200" y="250" width="200" height="30" as="geometry" />
        </mxCell>
        <mxCell id="2m3MYsOcYt7blPg2YDqS-4" value="Text" style="text;html=1;align=center;verticalAlign=middle;whiteSpace=wrap;rounded=0;" vertex="1" parent="1">
          <mxGeometry x="200" y="220" width="50" height="30" as="geometry" />
        </mxCell>
        <mxCell id="2m3MYsOcYt7blPg2YDqS-5" value="Text field" style="text;html=1;align=center;verticalAlign=middle;whiteSpace=wrap;rounded=0;" vertex="1" parent="1">
          <mxGeometry x="210" y="250" width="170" height="30" as="geometry" />
        </mxCell>
        <mxCell id="2m3MYsOcYt7blPg2YDqS-7" value="Text" style="text;html=1;align=center;verticalAlign=middle;whiteSpace=wrap;rounded=0;" vertex="1" parent="1">
          <mxGeometry x="195" y="310" width="60" height="30" as="geometry" />
        </mxCell>
        <mxCell id="2m3MYsOcYt7blPg2YDqS-8" value="" style="rounded=1;whiteSpace=wrap;html=1;" vertex="1" parent="1">
          <mxGeometry x="200" y="330" width="200" height="30" as="geometry" />
        </mxCell>
        <mxCell id="2m3MYsOcYt7blPg2YDqS-9" value="Text field" style="text;html=1;align=center;verticalAlign=middle;whiteSpace=wrap;rounded=0;" vertex="1" parent="1">
          <mxGeometry x="230" y="330" width="140" height="30" as="geometry" />
        </mxCell>
        <mxCell id="2m3MYsOcYt7blPg2YDqS-10" value="" style="rounded=1;whiteSpace=wrap;html=1;" vertex="1" parent="1">
          <mxGeometry x="252.5" y="390" width="105" height="30" as="geometry" />
        </mxCell>
        <mxCell id="2m3MYsOcYt7blPg2YDqS-11" value="button" style="text;html=1;align=center;verticalAlign=middle;whiteSpace=wrap;rounded=0;" vertex="1" parent="1">
          <mxGeometry x="270" y="390" width="60" height="30" as="geometry" />
        </mxCell>
        <mxCell id="2m3MYsOcYt7blPg2YDqS-12" value="image" style="text;html=1;align=center;verticalAlign=middle;whiteSpace=wrap;rounded=0;" vertex="1" parent="1">
          <mxGeometry x="390" y="440" width="60" height="30" as="geometry" />
        </mxCell>
        <mxCell id="2m3MYsOcYt7blPg2YDqS-13" value="company name" style="text;html=1;align=center;verticalAlign=middle;whiteSpace=wrap;rounded=0;" vertex="1" parent="1">
          <mxGeometry x="140" y="620" width="100" height="30" as="geometry" />
        </mxCell>
        <mxCell id="2m3MYsOcYt7blPg2YDqS-14" value="Text" style="text;html=1;align=center;verticalAlign=middle;whiteSpace=wrap;rounded=0;" vertex="1" parent="1">
          <mxGeometry x="150" y="660" width="60" height="30" as="geometry" />
        </mxCell>
        <mxCell id="2m3MYsOcYt7blPg2YDqS-16" value="Text" style="text;html=1;align=center;verticalAlign=middle;whiteSpace=wrap;rounded=0;" vertex="1" parent="1">
          <mxGeometry x="150" y="780" width="60" height="30" as="geometry" />
        </mxCell>
        <mxCell id="2m3MYsOcYt7blPg2YDqS-17" value="Text" style="text;html=1;align=center;verticalAlign=middle;whiteSpace=wrap;rounded=0;" vertex="1" parent="1">
          <mxGeometry x="150" y="740" width="60" height="30" as="geometry" />
        </mxCell>
        <mxCell id="2m3MYsOcYt7blPg2YDqS-18" value="Text" style="text;html=1;align=center;verticalAlign=middle;whiteSpace=wrap;rounded=0;" vertex="1" parent="1">
          <mxGeometry x="150" y="700" width="60" height="30" as="geometry" />
        </mxCell>
        <mxCell id="2m3MYsOcYt7blPg2YDqS-19" style="edgeStyle=orthogonalEdgeStyle;rounded=0;orthogonalLoop=1;jettySize=auto;html=1;exitX=0.5;exitY=1;exitDx=0;exitDy=0;" edge="1" parent="1" source="2m3MYsOcYt7blPg2YDqS-16" target="2m3MYsOcYt7blPg2YDqS-16">
          <mxGeometry relative="1" as="geometry" />
        </mxCell>
        <mxCell id="2m3MYsOcYt7blPg2YDqS-20" value="Icon" style="html=1;strokeWidth=1;shadow=0;dashed=0;shape=mxgraph.ios7ui.icon;fontSize=8;fontColor=#ffffff;buttonText=;whiteSpace=wrap;align=center;" vertex="1" parent="1">
          <mxGeometry x="140" y="665" width="20" height="20" as="geometry" />
        </mxCell>
        <mxCell id="2m3MYsOcYt7blPg2YDqS-21" value="Icon" style="html=1;strokeWidth=1;shadow=0;dashed=0;shape=mxgraph.ios7ui.icon;fontSize=8;fontColor=#ffffff;buttonText=;whiteSpace=wrap;align=center;" vertex="1" parent="1">
          <mxGeometry x="140" y="785" width="20" height="20" as="geometry" />
        </mxCell>
        <mxCell id="2m3MYsOcYt7blPg2YDqS-22" value="Icon" style="html=1;strokeWidth=1;shadow=0;dashed=0;shape=mxgraph.ios7ui.icon;fontSize=8;fontColor=#ffffff;buttonText=;whiteSpace=wrap;align=center;" vertex="1" parent="1">
          <mxGeometry x="140" y="705" width="20" height="20" as="geometry" />
        </mxCell>
        <mxCell id="2m3MYsOcYt7blPg2YDqS-23" value="Icon" style="html=1;strokeWidth=1;shadow=0;dashed=0;shape=mxgraph.ios7ui.icon;fontSize=8;fontColor=#ffffff;buttonText=;whiteSpace=wrap;align=center;" vertex="1" parent="1">
          <mxGeometry x="140" y="745" width="20" height="20" as="geometry" />
        </mxCell>
        <mxCell id="2m3MYsOcYt7blPg2YDqS-24" value="" style="rounded=1;whiteSpace=wrap;html=1;" vertex="1" parent="1">
          <mxGeometry x="445" y="685" width="80" height="30" as="geometry" />
        </mxCell>
        <mxCell id="2m3MYsOcYt7blPg2YDqS-25" value="" style="rounded=1;whiteSpace=wrap;html=1;" vertex="1" parent="1">
          <mxGeometry x="357.5" y="685" width="80" height="30" as="geometry" />
        </mxCell>
        <mxCell id="2m3MYsOcYt7blPg2YDqS-26" value="" style="rounded=1;whiteSpace=wrap;html=1;" vertex="1" parent="1">
          <mxGeometry x="270" y="685" width="80" height="30" as="geometry" />
        </mxCell>
        <mxCell id="2m3MYsOcYt7blPg2YDqS-27" value="" style="rounded=1;whiteSpace=wrap;html=1;" vertex="1" parent="1">
          <mxGeometry x="445" y="630" width="80" height="30" as="geometry" />
        </mxCell>
        <mxCell id="2m3MYsOcYt7blPg2YDqS-28" value="" style="rounded=1;whiteSpace=wrap;html=1;" vertex="1" parent="1">
          <mxGeometry x="357.5" y="630" width="80" height="30" as="geometry" />
        </mxCell>
        <mxCell id="2m3MYsOcYt7blPg2YDqS-29" value="" style="rounded=1;whiteSpace=wrap;html=1;" vertex="1" parent="1">
          <mxGeometry x="270" y="630" width="80" height="30" as="geometry" />
        </mxCell>
        <mxCell id="2m3MYsOcYt7blPg2YDqS-30" value="Text" style="text;html=1;align=center;verticalAlign=middle;whiteSpace=wrap;rounded=0;" vertex="1" parent="1">
          <mxGeometry x="465" y="685" width="60" height="30" as="geometry" />
        </mxCell>
        <mxCell id="2m3MYsOcYt7blPg2YDqS-31" value="Text" style="text;html=1;align=center;verticalAlign=middle;whiteSpace=wrap;rounded=0;" vertex="1" parent="1">
          <mxGeometry x="380" y="685" width="60" height="30" as="geometry" />
        </mxCell>
        <mxCell id="2m3MYsOcYt7blPg2YDqS-32" value="Text" style="text;html=1;align=center;verticalAlign=middle;whiteSpace=wrap;rounded=0;" vertex="1" parent="1">
          <mxGeometry x="297.5" y="685" width="60" height="30" as="geometry" />
        </mxCell>
        <mxCell id="2m3MYsOcYt7blPg2YDqS-33" value="Text" style="text;html=1;align=center;verticalAlign=middle;whiteSpace=wrap;rounded=0;" vertex="1" parent="1">
          <mxGeometry x="465" y="630" width="60" height="30" as="geometry" />
        </mxCell>
        <mxCell id="2m3MYsOcYt7blPg2YDqS-34" value="Text" style="text;html=1;align=center;verticalAlign=middle;whiteSpace=wrap;rounded=0;" vertex="1" parent="1">
          <mxGeometry x="380" y="630" width="60" height="30" as="geometry" />
        </mxCell>
        <mxCell id="2m3MYsOcYt7blPg2YDqS-35" value="Text" style="text;html=1;align=center;verticalAlign=middle;whiteSpace=wrap;rounded=0;" vertex="1" parent="1">
          <mxGeometry x="297.5" y="630" width="60" height="30" as="geometry" />
        </mxCell>
        <mxCell id="2m3MYsOcYt7blPg2YDqS-36" value="Icon" style="html=1;strokeWidth=1;shadow=0;dashed=0;shape=mxgraph.ios7ui.icon;fontSize=8;fontColor=#ffffff;buttonText=;whiteSpace=wrap;align=center;" vertex="1" parent="1">
          <mxGeometry x="460" y="690" width="20" height="20" as="geometry" />
        </mxCell>
        <mxCell id="2m3MYsOcYt7blPg2YDqS-37" value="Icon" style="html=1;strokeWidth=1;shadow=0;dashed=0;shape=mxgraph.ios7ui.icon;fontSize=8;fontColor=#ffffff;buttonText=;whiteSpace=wrap;align=center;" vertex="1" parent="1">
          <mxGeometry x="370" y="690" width="20" height="20" as="geometry" />
        </mxCell>
        <mxCell id="2m3MYsOcYt7blPg2YDqS-38" value="Icon" style="html=1;strokeWidth=1;shadow=0;dashed=0;shape=mxgraph.ios7ui.icon;fontSize=8;fontColor=#ffffff;buttonText=;whiteSpace=wrap;align=center;" vertex="1" parent="1">
          <mxGeometry x="285" y="690" width="20" height="20" as="geometry" />
        </mxCell>
        <mxCell id="2m3MYsOcYt7blPg2YDqS-39" value="Icon" style="html=1;strokeWidth=1;shadow=0;dashed=0;shape=mxgraph.ios7ui.icon;fontSize=8;fontColor=#ffffff;buttonText=;whiteSpace=wrap;align=center;" vertex="1" parent="1">
          <mxGeometry x="460" y="635" width="20" height="20" as="geometry" />
        </mxCell>
        <mxCell id="2m3MYsOcYt7blPg2YDqS-40" value="Icon" style="html=1;strokeWidth=1;shadow=0;dashed=0;shape=mxgraph.ios7ui.icon;fontSize=8;fontColor=#ffffff;buttonText=;whiteSpace=wrap;align=center;" vertex="1" parent="1">
          <mxGeometry x="370" y="635" width="20" height="20" as="geometry" />
        </mxCell>
        <mxCell id="2m3MYsOcYt7blPg2YDqS-41" value="Icon" style="html=1;strokeWidth=1;shadow=0;dashed=0;shape=mxgraph.ios7ui.icon;fontSize=8;fontColor=#ffffff;buttonText=;whiteSpace=wrap;align=center;" vertex="1" parent="1">
          <mxGeometry x="285" y="635" width="20" height="20" as="geometry" />
        </mxCell>
        <mxCell id="2m3MYsOcYt7blPg2YDqS-42" value="" style="rounded=1;whiteSpace=wrap;html=1;" vertex="1" parent="1">
          <mxGeometry x="455" y="880" width="75" height="90" as="geometry" />
        </mxCell>
        <mxCell id="2m3MYsOcYt7blPg2YDqS-43" value="" style="rounded=1;whiteSpace=wrap;html=1;" vertex="1" parent="1">
          <mxGeometry x="365" y="880" width="75" height="90" as="geometry" />
        </mxCell>
        <mxCell id="2m3MYsOcYt7blPg2YDqS-44" value="" style="rounded=1;whiteSpace=wrap;html=1;" vertex="1" parent="1">
          <mxGeometry x="280" y="880" width="72.5" height="90" as="geometry" />
        </mxCell>
        <mxCell id="2m3MYsOcYt7blPg2YDqS-45" value="" style="rounded=1;whiteSpace=wrap;html=1;" vertex="1" parent="1">
          <mxGeometry x="455" y="770" width="75" height="90" as="geometry" />
        </mxCell>
        <mxCell id="2m3MYsOcYt7blPg2YDqS-46" value="" style="rounded=1;whiteSpace=wrap;html=1;" vertex="1" parent="1">
          <mxGeometry x="365" y="770" width="75" height="90" as="geometry" />
        </mxCell>
        <mxCell id="2m3MYsOcYt7blPg2YDqS-47" value="" style="rounded=1;whiteSpace=wrap;html=1;" vertex="1" parent="1">
          <mxGeometry x="280" y="770" width="70" height="90" as="geometry" />
        </mxCell>
        <mxCell id="2m3MYsOcYt7blPg2YDqS-49" value="Text" style="text;html=1;align=center;verticalAlign=middle;whiteSpace=wrap;rounded=0;" vertex="1" parent="1">
          <mxGeometry x="462.5" y="940" width="60" height="30" as="geometry" />
        </mxCell>
        <mxCell id="2m3MYsOcYt7blPg2YDqS-50" value="Text" style="text;html=1;align=center;verticalAlign=middle;whiteSpace=wrap;rounded=0;" vertex="1" parent="1">
          <mxGeometry x="372.5" y="940" width="60" height="30" as="geometry" />
        </mxCell>
        <mxCell id="2m3MYsOcYt7blPg2YDqS-51" value="Text" style="text;html=1;align=center;verticalAlign=middle;whiteSpace=wrap;rounded=0;" vertex="1" parent="1">
          <mxGeometry x="285" y="940" width="60" height="30" as="geometry" />
        </mxCell>
        <mxCell id="2m3MYsOcYt7blPg2YDqS-52" value="Text" style="text;html=1;align=center;verticalAlign=middle;whiteSpace=wrap;rounded=0;" vertex="1" parent="1">
          <mxGeometry x="465" y="830" width="60" height="30" as="geometry" />
        </mxCell>
        <mxCell id="2m3MYsOcYt7blPg2YDqS-53" value="Text" style="text;html=1;align=center;verticalAlign=middle;whiteSpace=wrap;rounded=0;" vertex="1" parent="1">
          <mxGeometry x="370" y="830" width="60" height="30" as="geometry" />
        </mxCell>
        <mxCell id="2m3MYsOcYt7blPg2YDqS-54" value="Text" style="text;html=1;align=center;verticalAlign=middle;whiteSpace=wrap;rounded=0;" vertex="1" parent="1">
          <mxGeometry x="285" y="830" width="60" height="30" as="geometry" />
        </mxCell>
        <mxCell id="2m3MYsOcYt7blPg2YDqS-55" value="" style="rounded=1;whiteSpace=wrap;html=1;" vertex="1" parent="1">
          <mxGeometry x="372.5" y="780" width="60" height="40" as="geometry" />
        </mxCell>
        <mxCell id="2m3MYsOcYt7blPg2YDqS-56" value="" style="rounded=1;whiteSpace=wrap;html=1;" vertex="1" parent="1">
          <mxGeometry x="462.5" y="780" width="60" height="40" as="geometry" />
        </mxCell>
        <mxCell id="2m3MYsOcYt7blPg2YDqS-57" value="" style="rounded=1;whiteSpace=wrap;html=1;" vertex="1" parent="1">
          <mxGeometry x="462.5" y="890" width="60" height="40" as="geometry" />
        </mxCell>
        <mxCell id="2m3MYsOcYt7blPg2YDqS-58" value="" style="rounded=1;whiteSpace=wrap;html=1;" vertex="1" parent="1">
          <mxGeometry x="372.5" y="890" width="60" height="40" as="geometry" />
        </mxCell>
        <mxCell id="2m3MYsOcYt7blPg2YDqS-59" value="" style="rounded=1;whiteSpace=wrap;html=1;" vertex="1" parent="1">
          <mxGeometry x="286.25" y="890" width="60" height="40" as="geometry" />
        </mxCell>
        <mxCell id="2m3MYsOcYt7blPg2YDqS-60" value="" style="rounded=1;whiteSpace=wrap;html=1;" vertex="1" parent="1">
          <mxGeometry x="286.25" y="780" width="60" height="40" as="geometry" />
        </mxCell>
        <mxCell id="2m3MYsOcYt7blPg2YDqS-67" value="" style="sketch=0;outlineConnect=0;fontColor=#232F3E;gradientColor=none;fillColor=#ED7100;strokeColor=none;dashed=0;verticalLabelPosition=bottom;verticalAlign=top;align=center;html=1;fontSize=12;fontStyle=0;aspect=fixed;pointerEvents=1;shape=mxgraph.aws4.container_registry_image;" vertex="1" parent="1">
          <mxGeometry x="381" y="782" width="38" height="38" as="geometry" />
        </mxCell>
        <mxCell id="2m3MYsOcYt7blPg2YDqS-68" value="" style="sketch=0;outlineConnect=0;fontColor=#232F3E;gradientColor=none;fillColor=#ED7100;strokeColor=none;dashed=0;verticalLabelPosition=bottom;verticalAlign=top;align=center;html=1;fontSize=12;fontStyle=0;aspect=fixed;pointerEvents=1;shape=mxgraph.aws4.container_registry_image;" vertex="1" parent="1">
          <mxGeometry x="473.5" y="892" width="38" height="38" as="geometry" />
        </mxCell>
        <mxCell id="2m3MYsOcYt7blPg2YDqS-69" value="" style="sketch=0;outlineConnect=0;fontColor=#232F3E;gradientColor=none;fillColor=#ED7100;strokeColor=none;dashed=0;verticalLabelPosition=bottom;verticalAlign=top;align=center;html=1;fontSize=12;fontStyle=0;aspect=fixed;pointerEvents=1;shape=mxgraph.aws4.container_registry_image;" vertex="1" parent="1">
          <mxGeometry x="387" y="891" width="38" height="38" as="geometry" />
        </mxCell>
        <mxCell id="2m3MYsOcYt7blPg2YDqS-70" value="" style="sketch=0;outlineConnect=0;fontColor=#232F3E;gradientColor=none;fillColor=#ED7100;strokeColor=none;dashed=0;verticalLabelPosition=bottom;verticalAlign=top;align=center;html=1;fontSize=12;fontStyle=0;aspect=fixed;pointerEvents=1;shape=mxgraph.aws4.container_registry_image;" vertex="1" parent="1">
          <mxGeometry x="473.5" y="782" width="38" height="38" as="geometry" />
        </mxCell>
        <mxCell id="2m3MYsOcYt7blPg2YDqS-71" value="" style="sketch=0;outlineConnect=0;fontColor=#232F3E;gradientColor=none;fillColor=#ED7100;strokeColor=none;dashed=0;verticalLabelPosition=bottom;verticalAlign=top;align=center;html=1;fontSize=12;fontStyle=0;aspect=fixed;pointerEvents=1;shape=mxgraph.aws4.container_registry_image;" vertex="1" parent="1">
          <mxGeometry x="299.25" y="890" width="37" height="37" as="geometry" />
        </mxCell>
        <mxCell id="2m3MYsOcYt7blPg2YDqS-72" value="" style="sketch=0;outlineConnect=0;fontColor=#232F3E;gradientColor=none;fillColor=#ED7100;strokeColor=none;dashed=0;verticalLabelPosition=bottom;verticalAlign=top;align=center;html=1;fontSize=12;fontStyle=0;aspect=fixed;pointerEvents=1;shape=mxgraph.aws4.container_registry_image;" vertex="1" parent="1">
          <mxGeometry x="297" y="782" width="36" height="36" as="geometry" />
        </mxCell>
        <mxCell id="2m3MYsOcYt7blPg2YDqS-74" value="" style="sketch=0;outlineConnect=0;fontColor=#232F3E;gradientColor=none;fillColor=#ED7100;strokeColor=none;dashed=0;verticalLabelPosition=bottom;verticalAlign=top;align=center;html=1;fontSize=12;fontStyle=0;aspect=fixed;pointerEvents=1;shape=mxgraph.aws4.container_registry_image;" vertex="1" parent="1">
          <mxGeometry x="553" y="694" width="182" height="182" as="geometry" />
        </mxCell>
        <mxCell id="2m3MYsOcYt7blPg2YDqS-75" value="" style="rounded=1;whiteSpace=wrap;html=1;" vertex="1" parent="1">
          <mxGeometry x="580" y="605" width="110" height="25" as="geometry" />
        </mxCell>
        <mxCell id="2m3MYsOcYt7blPg2YDqS-76" value="Text" style="text;html=1;align=center;verticalAlign=middle;whiteSpace=wrap;rounded=0;" vertex="1" parent="1">
          <mxGeometry x="605" y="610" width="60" height="20" as="geometry" />
        </mxCell>
        <mxCell id="2m3MYsOcYt7blPg2YDqS-77" value="" style="rounded=1;whiteSpace=wrap;html=1;" vertex="1" parent="1">
          <mxGeometry x="570" y="694" width="150" height="26" as="geometry" />
        </mxCell>
        <mxCell id="2m3MYsOcYt7blPg2YDqS-78" value="" style="rounded=1;whiteSpace=wrap;html=1;" vertex="1" parent="1">
          <mxGeometry x="569" y="650" width="150" height="30" as="geometry" />
        </mxCell>
        <mxCell id="2m3MYsOcYt7blPg2YDqS-79" value="Text field" style="text;html=1;align=center;verticalAlign=middle;whiteSpace=wrap;rounded=0;" vertex="1" parent="1">
          <mxGeometry x="614" y="695" width="60" height="30" as="geometry" />
        </mxCell>
        <mxCell id="2m3MYsOcYt7blPg2YDqS-80" value="Text field" style="text;html=1;align=center;verticalAlign=middle;whiteSpace=wrap;rounded=0;" vertex="1" parent="1">
          <mxGeometry x="605" y="650" width="60" height="30" as="geometry" />
        </mxCell>
        <mxCell id="2m3MYsOcYt7blPg2YDqS-81" value="" style="rounded=1;whiteSpace=wrap;html=1;" vertex="1" parent="1">
          <mxGeometry x="574" y="820" width="140" height="90" as="geometry" />
        </mxCell>
        <mxCell id="2m3MYsOcYt7blPg2YDqS-82" value="Text" style="text;html=1;align=center;verticalAlign=middle;whiteSpace=wrap;rounded=0;" vertex="1" parent="1">
          <mxGeometry x="614" y="846" width="60" height="30" as="geometry" />
        </mxCell>
        <mxCell id="2m3MYsOcYt7blPg2YDqS-83" value="" style="rounded=1;whiteSpace=wrap;html=1;" vertex="1" parent="1">
          <mxGeometry x="587" y="929" width="96" height="30" as="geometry" />
        </mxCell>
        <mxCell id="2m3MYsOcYt7blPg2YDqS-84" value="button" style="text;html=1;align=center;verticalAlign=middle;whiteSpace=wrap;rounded=0;" vertex="1" parent="1">
          <mxGeometry x="600" y="930" width="60" height="30" as="geometry" />
        </mxCell>
        <mxCell id="2m3MYsOcYt7blPg2YDqS-87" value="" style="rounded=1;whiteSpace=wrap;html=1;glass=0;shadow=0;perimeterSpacing=1;" vertex="1" parent="1">
          <mxGeometry x="110" y="1121.17" width="620" height="390" as="geometry" />
        </mxCell>
        <mxCell id="2m3MYsOcYt7blPg2YDqS-88" value="" style="endArrow=none;html=1;rounded=0;exitX=0.169;exitY=0;exitDx=0;exitDy=0;exitPerimeter=0;entryX=0.172;entryY=1.003;entryDx=0;entryDy=0;entryPerimeter=0;" edge="1" parent="1">
          <mxGeometry width="50" height="50" relative="1" as="geometry">
            <mxPoint x="245" y="1121.17" as="sourcePoint" />
            <mxPoint x="246.86" y="1512.3400000000001" as="targetPoint" />
          </mxGeometry>
        </mxCell>
        <mxCell id="2m3MYsOcYt7blPg2YDqS-89" value="" style="endArrow=none;html=1;rounded=0;exitX=0.169;exitY=0;exitDx=0;exitDy=0;exitPerimeter=0;entryX=0.172;entryY=1.003;entryDx=0;entryDy=0;entryPerimeter=0;" edge="1" parent="1">
          <mxGeometry width="50" height="50" relative="1" as="geometry">
            <mxPoint x="545" y="1120" as="sourcePoint" />
            <mxPoint x="546.86" y="1511.17" as="targetPoint" />
          </mxGeometry>
        </mxCell>
        <mxCell id="2m3MYsOcYt7blPg2YDqS-90" value="company name" style="text;html=1;align=center;verticalAlign=middle;whiteSpace=wrap;rounded=0;" vertex="1" parent="1">
          <mxGeometry x="135" y="1151.17" width="100" height="30" as="geometry" />
        </mxCell>
        <mxCell id="2m3MYsOcYt7blPg2YDqS-91" value="Text" style="text;html=1;align=center;verticalAlign=middle;whiteSpace=wrap;rounded=0;" vertex="1" parent="1">
          <mxGeometry x="145" y="1191.17" width="60" height="30" as="geometry" />
        </mxCell>
        <mxCell id="2m3MYsOcYt7blPg2YDqS-92" value="Text" style="text;html=1;align=center;verticalAlign=middle;whiteSpace=wrap;rounded=0;" vertex="1" parent="1">
          <mxGeometry x="145" y="1311.17" width="60" height="30" as="geometry" />
        </mxCell>
        <mxCell id="2m3MYsOcYt7blPg2YDqS-93" value="Text" style="text;html=1;align=center;verticalAlign=middle;whiteSpace=wrap;rounded=0;" vertex="1" parent="1">
          <mxGeometry x="145" y="1271.17" width="60" height="30" as="geometry" />
        </mxCell>
        <mxCell id="2m3MYsOcYt7blPg2YDqS-94" value="Text" style="text;html=1;align=center;verticalAlign=middle;whiteSpace=wrap;rounded=0;" vertex="1" parent="1">
          <mxGeometry x="145" y="1231.17" width="60" height="30" as="geometry" />
        </mxCell>
        <mxCell id="2m3MYsOcYt7blPg2YDqS-95" style="edgeStyle=orthogonalEdgeStyle;rounded=0;orthogonalLoop=1;jettySize=auto;html=1;exitX=0.5;exitY=1;exitDx=0;exitDy=0;" edge="1" parent="1" source="2m3MYsOcYt7blPg2YDqS-92" target="2m3MYsOcYt7blPg2YDqS-92">
          <mxGeometry relative="1" as="geometry" />
        </mxCell>
        <mxCell id="2m3MYsOcYt7blPg2YDqS-96" value="Icon" style="html=1;strokeWidth=1;shadow=0;dashed=0;shape=mxgraph.ios7ui.icon;fontSize=8;fontColor=#ffffff;buttonText=;whiteSpace=wrap;align=center;" vertex="1" parent="1">
          <mxGeometry x="135" y="1196.17" width="20" height="20" as="geometry" />
        </mxCell>
        <mxCell id="2m3MYsOcYt7blPg2YDqS-97" value="Icon" style="html=1;strokeWidth=1;shadow=0;dashed=0;shape=mxgraph.ios7ui.icon;fontSize=8;fontColor=#ffffff;buttonText=;whiteSpace=wrap;align=center;" vertex="1" parent="1">
          <mxGeometry x="135" y="1316.17" width="20" height="20" as="geometry" />
        </mxCell>
        <mxCell id="2m3MYsOcYt7blPg2YDqS-98" value="Icon" style="html=1;strokeWidth=1;shadow=0;dashed=0;shape=mxgraph.ios7ui.icon;fontSize=8;fontColor=#ffffff;buttonText=;whiteSpace=wrap;align=center;" vertex="1" parent="1">
          <mxGeometry x="135" y="1236.17" width="20" height="20" as="geometry" />
        </mxCell>
        <mxCell id="2m3MYsOcYt7blPg2YDqS-99" value="Icon" style="html=1;strokeWidth=1;shadow=0;dashed=0;shape=mxgraph.ios7ui.icon;fontSize=8;fontColor=#ffffff;buttonText=;whiteSpace=wrap;align=center;" vertex="1" parent="1">
          <mxGeometry x="135" y="1276.17" width="20" height="20" as="geometry" />
        </mxCell>
        <mxCell id="2m3MYsOcYt7blPg2YDqS-118" value="" style="rounded=1;whiteSpace=wrap;html=1;" vertex="1" parent="1">
          <mxGeometry x="452.5" y="1360" width="75" height="90" as="geometry" />
        </mxCell>
        <mxCell id="2m3MYsOcYt7blPg2YDqS-119" value="" style="rounded=1;whiteSpace=wrap;html=1;" vertex="1" parent="1">
          <mxGeometry x="362.5" y="1360" width="75" height="90" as="geometry" />
        </mxCell>
        <mxCell id="2m3MYsOcYt7blPg2YDqS-120" value="" style="rounded=1;whiteSpace=wrap;html=1;" vertex="1" parent="1">
          <mxGeometry x="277" y="1360" width="72.5" height="90" as="geometry" />
        </mxCell>
        <mxCell id="2m3MYsOcYt7blPg2YDqS-121" value="" style="rounded=1;whiteSpace=wrap;html=1;" vertex="1" parent="1">
          <mxGeometry x="455" y="1256.17" width="75" height="90" as="geometry" />
        </mxCell>
        <mxCell id="2m3MYsOcYt7blPg2YDqS-122" value="" style="rounded=1;whiteSpace=wrap;html=1;" vertex="1" parent="1">
          <mxGeometry x="360" y="1256.17" width="75" height="90" as="geometry" />
        </mxCell>
        <mxCell id="2m3MYsOcYt7blPg2YDqS-123" value="" style="rounded=1;whiteSpace=wrap;html=1;" vertex="1" parent="1">
          <mxGeometry x="277" y="1256.17" width="70" height="90" as="geometry" />
        </mxCell>
        <mxCell id="2m3MYsOcYt7blPg2YDqS-124" value="Text" style="text;html=1;align=center;verticalAlign=middle;whiteSpace=wrap;rounded=0;" vertex="1" parent="1">
          <mxGeometry x="458.13" y="1420" width="60" height="30" as="geometry" />
        </mxCell>
        <mxCell id="2m3MYsOcYt7blPg2YDqS-125" value="Text" style="text;html=1;align=center;verticalAlign=middle;whiteSpace=wrap;rounded=0;" vertex="1" parent="1">
          <mxGeometry x="370" y="1420" width="60" height="30" as="geometry" />
        </mxCell>
        <mxCell id="2m3MYsOcYt7blPg2YDqS-126" value="Text" style="text;html=1;align=center;verticalAlign=middle;whiteSpace=wrap;rounded=0;" vertex="1" parent="1">
          <mxGeometry x="285" y="1420" width="60" height="30" as="geometry" />
        </mxCell>
        <mxCell id="2m3MYsOcYt7blPg2YDqS-127" value="Text" style="text;html=1;align=center;verticalAlign=middle;whiteSpace=wrap;rounded=0;" vertex="1" parent="1">
          <mxGeometry x="462.5" y="1316.17" width="60" height="30" as="geometry" />
        </mxCell>
        <mxCell id="2m3MYsOcYt7blPg2YDqS-128" value="Text" style="text;html=1;align=center;verticalAlign=middle;whiteSpace=wrap;rounded=0;" vertex="1" parent="1">
          <mxGeometry x="365" y="1311.17" width="60" height="30" as="geometry" />
        </mxCell>
        <mxCell id="2m3MYsOcYt7blPg2YDqS-129" value="Text" style="text;html=1;align=center;verticalAlign=middle;whiteSpace=wrap;rounded=0;" vertex="1" parent="1">
          <mxGeometry x="285" y="1316.17" width="60" height="30" as="geometry" />
        </mxCell>
        <mxCell id="2m3MYsOcYt7blPg2YDqS-130" value="" style="rounded=1;whiteSpace=wrap;html=1;" vertex="1" parent="1">
          <mxGeometry x="462.5" y="1264.17" width="60" height="40" as="geometry" />
        </mxCell>
        <mxCell id="2m3MYsOcYt7blPg2YDqS-131" value="" style="rounded=1;whiteSpace=wrap;html=1;" vertex="1" parent="1">
          <mxGeometry x="370" y="1266.17" width="60" height="40" as="geometry" />
        </mxCell>
        <mxCell id="2m3MYsOcYt7blPg2YDqS-132" value="" style="rounded=1;whiteSpace=wrap;html=1;" vertex="1" parent="1">
          <mxGeometry x="370" y="1372.17" width="60" height="40" as="geometry" />
        </mxCell>
        <mxCell id="2m3MYsOcYt7blPg2YDqS-133" value="" style="rounded=1;whiteSpace=wrap;html=1;" vertex="1" parent="1">
          <mxGeometry x="281.25" y="1367.17" width="60" height="40" as="geometry" />
        </mxCell>
        <mxCell id="2m3MYsOcYt7blPg2YDqS-134" value="" style="rounded=1;whiteSpace=wrap;html=1;" vertex="1" parent="1">
          <mxGeometry x="457.5" y="1367.17" width="60" height="40" as="geometry" />
        </mxCell>
        <mxCell id="2m3MYsOcYt7blPg2YDqS-135" value="" style="rounded=1;whiteSpace=wrap;html=1;" vertex="1" parent="1">
          <mxGeometry x="285" y="1266.17" width="60" height="40" as="geometry" />
        </mxCell>
        <mxCell id="2m3MYsOcYt7blPg2YDqS-136" value="" style="sketch=0;outlineConnect=0;fontColor=#232F3E;gradientColor=none;fillColor=#ED7100;strokeColor=none;dashed=0;verticalLabelPosition=bottom;verticalAlign=top;align=center;html=1;fontSize=12;fontStyle=0;aspect=fixed;pointerEvents=1;shape=mxgraph.aws4.container_registry_image;" vertex="1" parent="1">
          <mxGeometry x="384.5" y="1267.17" width="38" height="38" as="geometry" />
        </mxCell>
        <mxCell id="2m3MYsOcYt7blPg2YDqS-137" value="" style="sketch=0;outlineConnect=0;fontColor=#232F3E;gradientColor=none;fillColor=#ED7100;strokeColor=none;dashed=0;verticalLabelPosition=bottom;verticalAlign=top;align=center;html=1;fontSize=12;fontStyle=0;aspect=fixed;pointerEvents=1;shape=mxgraph.aws4.container_registry_image;" vertex="1" parent="1">
          <mxGeometry x="469.13" y="1367.17" width="38" height="38" as="geometry" />
        </mxCell>
        <mxCell id="2m3MYsOcYt7blPg2YDqS-138" value="" style="sketch=0;outlineConnect=0;fontColor=#232F3E;gradientColor=none;fillColor=#ED7100;strokeColor=none;dashed=0;verticalLabelPosition=bottom;verticalAlign=top;align=center;html=1;fontSize=12;fontStyle=0;aspect=fixed;pointerEvents=1;shape=mxgraph.aws4.container_registry_image;" vertex="1" parent="1">
          <mxGeometry x="383.5" y="1374.17" width="38" height="38" as="geometry" />
        </mxCell>
        <mxCell id="2m3MYsOcYt7blPg2YDqS-139" value="" style="sketch=0;outlineConnect=0;fontColor=#232F3E;gradientColor=none;fillColor=#ED7100;strokeColor=none;dashed=0;verticalLabelPosition=bottom;verticalAlign=top;align=center;html=1;fontSize=12;fontStyle=0;aspect=fixed;pointerEvents=1;shape=mxgraph.aws4.container_registry_image;" vertex="1" parent="1">
          <mxGeometry x="291" y="1369.17" width="38" height="38" as="geometry" />
        </mxCell>
        <mxCell id="2m3MYsOcYt7blPg2YDqS-140" value="" style="sketch=0;outlineConnect=0;fontColor=#232F3E;gradientColor=none;fillColor=#ED7100;strokeColor=none;dashed=0;verticalLabelPosition=bottom;verticalAlign=top;align=center;html=1;fontSize=12;fontStyle=0;aspect=fixed;pointerEvents=1;shape=mxgraph.aws4.container_registry_image;" vertex="1" parent="1">
          <mxGeometry x="472" y="1264.17" width="37" height="37" as="geometry" />
        </mxCell>
        <mxCell id="2m3MYsOcYt7blPg2YDqS-141" value="" style="sketch=0;outlineConnect=0;fontColor=#232F3E;gradientColor=none;fillColor=#ED7100;strokeColor=none;dashed=0;verticalLabelPosition=bottom;verticalAlign=top;align=center;html=1;fontSize=12;fontStyle=0;aspect=fixed;pointerEvents=1;shape=mxgraph.aws4.container_registry_image;" vertex="1" parent="1">
          <mxGeometry x="294.75" y="1268.17" width="36" height="36" as="geometry" />
        </mxCell>
        <mxCell id="2m3MYsOcYt7blPg2YDqS-142" value="" style="sketch=0;outlineConnect=0;fontColor=#232F3E;gradientColor=none;fillColor=#ED7100;strokeColor=none;dashed=0;verticalLabelPosition=bottom;verticalAlign=top;align=center;html=1;fontSize=12;fontStyle=0;aspect=fixed;pointerEvents=1;shape=mxgraph.aws4.container_registry_image;" vertex="1" parent="1">
          <mxGeometry x="548" y="1225.17" width="182" height="182" as="geometry" />
        </mxCell>
        <mxCell id="2m3MYsOcYt7blPg2YDqS-143" value="" style="rounded=1;whiteSpace=wrap;html=1;" vertex="1" parent="1">
          <mxGeometry x="564" y="1321.17" width="146" height="25" as="geometry" />
        </mxCell>
        <mxCell id="2m3MYsOcYt7blPg2YDqS-144" value="Text" style="text;html=1;align=center;verticalAlign=middle;whiteSpace=wrap;rounded=0;" vertex="1" parent="1">
          <mxGeometry x="569" y="1179.68" width="60" height="20" as="geometry" />
        </mxCell>
        <mxCell id="2m3MYsOcYt7blPg2YDqS-145" value="" style="rounded=1;whiteSpace=wrap;html=1;" vertex="1" parent="1">
          <mxGeometry x="564" y="1264.17" width="150" height="26" as="geometry" />
        </mxCell>
        <mxCell id="2m3MYsOcYt7blPg2YDqS-146" value="" style="rounded=1;whiteSpace=wrap;html=1;" vertex="1" parent="1">
          <mxGeometry x="564" y="1203.01" width="150" height="30" as="geometry" />
        </mxCell>
        <mxCell id="2m3MYsOcYt7blPg2YDqS-147" value="Text field" style="text;html=1;align=center;verticalAlign=middle;whiteSpace=wrap;rounded=0;" vertex="1" parent="1">
          <mxGeometry x="607" y="1264.17" width="60" height="30" as="geometry" />
        </mxCell>
        <mxCell id="2m3MYsOcYt7blPg2YDqS-148" value="Text field" style="text;html=1;align=center;verticalAlign=middle;whiteSpace=wrap;rounded=0;" vertex="1" parent="1">
          <mxGeometry x="605" y="1206.17" width="60" height="30" as="geometry" />
        </mxCell>
        <mxCell id="2m3MYsOcYt7blPg2YDqS-151" value="" style="rounded=1;whiteSpace=wrap;html=1;" vertex="1" parent="1">
          <mxGeometry x="582" y="1460.17" width="96" height="30" as="geometry" />
        </mxCell>
        <mxCell id="2m3MYsOcYt7blPg2YDqS-152" value="button" style="text;html=1;align=center;verticalAlign=middle;whiteSpace=wrap;rounded=0;" vertex="1" parent="1">
          <mxGeometry x="595" y="1461.17" width="60" height="30" as="geometry" />
        </mxCell>
        <mxCell id="2m3MYsOcYt7blPg2YDqS-153" value="" style="rounded=1;whiteSpace=wrap;html=1;" vertex="1" parent="1">
          <mxGeometry x="451.25" y="1151.17" width="73.75" height="88.83" as="geometry" />
        </mxCell>
        <mxCell id="2m3MYsOcYt7blPg2YDqS-154" value="" style="rounded=1;whiteSpace=wrap;html=1;" vertex="1" parent="1">
          <mxGeometry x="275" y="1151.17" width="70" height="90" as="geometry" />
        </mxCell>
        <mxCell id="2m3MYsOcYt7blPg2YDqS-155" value="" style="rounded=1;whiteSpace=wrap;html=1;" vertex="1" parent="1">
          <mxGeometry x="362.5" y="1151.17" width="70" height="90" as="geometry" />
        </mxCell>
        <mxCell id="2m3MYsOcYt7blPg2YDqS-156" value="" style="sketch=0;outlineConnect=0;fontColor=#232F3E;gradientColor=none;fillColor=#ED7100;strokeColor=none;dashed=0;verticalLabelPosition=bottom;verticalAlign=top;align=center;html=1;fontSize=12;fontStyle=0;aspect=fixed;pointerEvents=1;shape=mxgraph.aws4.container_registry_image;" vertex="1" parent="1">
          <mxGeometry x="471" y="1161.68" width="38" height="38" as="geometry" />
        </mxCell>
        <mxCell id="2m3MYsOcYt7blPg2YDqS-157" value="" style="sketch=0;outlineConnect=0;fontColor=#232F3E;gradientColor=none;fillColor=#ED7100;strokeColor=none;dashed=0;verticalLabelPosition=bottom;verticalAlign=top;align=center;html=1;fontSize=12;fontStyle=0;aspect=fixed;pointerEvents=1;shape=mxgraph.aws4.container_registry_image;" vertex="1" parent="1">
          <mxGeometry x="378.5" y="1164.43" width="38" height="38" as="geometry" />
        </mxCell>
        <mxCell id="2m3MYsOcYt7blPg2YDqS-158" value="" style="sketch=0;outlineConnect=0;fontColor=#232F3E;gradientColor=none;fillColor=#ED7100;strokeColor=none;dashed=0;verticalLabelPosition=bottom;verticalAlign=top;align=center;html=1;fontSize=12;fontStyle=0;aspect=fixed;pointerEvents=1;shape=mxgraph.aws4.container_registry_image;" vertex="1" parent="1">
          <mxGeometry x="291.66" y="1163.84" width="39.17" height="39.17" as="geometry" />
        </mxCell>
        <mxCell id="2m3MYsOcYt7blPg2YDqS-160" value="" style="rounded=1;whiteSpace=wrap;html=1;fillColor=none;" vertex="1" parent="1">
          <mxGeometry x="457.5" y="1158.35" width="60" height="44.66" as="geometry" />
        </mxCell>
        <mxCell id="2m3MYsOcYt7blPg2YDqS-161" value="" style="rounded=1;whiteSpace=wrap;html=1;shadow=0;fillColor=none;" vertex="1" parent="1">
          <mxGeometry x="282.25" y="1161.5100000000002" width="58" height="43.83" as="geometry" />
        </mxCell>
        <mxCell id="2m3MYsOcYt7blPg2YDqS-163" value="" style="rounded=1;whiteSpace=wrap;html=1;fillColor=none;" vertex="1" parent="1">
          <mxGeometry x="367.5" y="1161.5100000000002" width="55" height="43.83" as="geometry" />
        </mxCell>
        <mxCell id="2m3MYsOcYt7blPg2YDqS-168" value="Text" style="text;html=1;align=center;verticalAlign=middle;whiteSpace=wrap;rounded=0;" vertex="1" parent="1">
          <mxGeometry x="457.5" y="1210" width="60" height="30" as="geometry" />
        </mxCell>
        <mxCell id="2m3MYsOcYt7blPg2YDqS-169" value="Text" style="text;html=1;align=center;verticalAlign=middle;whiteSpace=wrap;rounded=0;" vertex="1" parent="1">
          <mxGeometry x="365" y="1211.17" width="60" height="30" as="geometry" />
        </mxCell>
        <mxCell id="2m3MYsOcYt7blPg2YDqS-170" value="Text" style="text;html=1;align=center;verticalAlign=middle;whiteSpace=wrap;rounded=0;" vertex="1" parent="1">
          <mxGeometry x="277" y="1216.17" width="60" height="30" as="geometry" />
        </mxCell>
        <mxCell id="2m3MYsOcYt7blPg2YDqS-173" value="" style="rounded=1;whiteSpace=wrap;html=1;" vertex="1" parent="1">
          <mxGeometry x="581" y="1138.03" width="93" height="20.32" as="geometry" />
        </mxCell>
        <mxCell id="2m3MYsOcYt7blPg2YDqS-174" value="Text" style="text;html=1;align=center;verticalAlign=middle;whiteSpace=wrap;rounded=0;" vertex="1" parent="1">
          <mxGeometry x="595" y="1132" width="60" height="30" as="geometry" />
        </mxCell>
        <mxCell id="2m3MYsOcYt7blPg2YDqS-175" value="Text" style="text;html=1;align=center;verticalAlign=middle;whiteSpace=wrap;rounded=0;" vertex="1" parent="1">
          <mxGeometry x="570" y="1237.17" width="60" height="30" as="geometry" />
        </mxCell>
        <mxCell id="2m3MYsOcYt7blPg2YDqS-176" value="" style="rounded=1;whiteSpace=wrap;html=1;" vertex="1" parent="1">
          <mxGeometry x="566" y="1382.17" width="146" height="25" as="geometry" />
        </mxCell>
        <mxCell id="2m3MYsOcYt7blPg2YDqS-177" value="Text field" style="text;html=1;align=center;verticalAlign=middle;whiteSpace=wrap;rounded=0;" vertex="1" parent="1">
          <mxGeometry x="605" y="1318.67" width="60" height="30" as="geometry" />
        </mxCell>
        <mxCell id="2m3MYsOcYt7blPg2YDqS-178" value="Text field" style="text;html=1;align=center;verticalAlign=middle;whiteSpace=wrap;rounded=0;" vertex="1" parent="1">
          <mxGeometry x="607" y="1382.17" width="60" height="30" as="geometry" />
        </mxCell>
        <mxCell id="2m3MYsOcYt7blPg2YDqS-180" value="Text" style="text;html=1;align=center;verticalAlign=middle;whiteSpace=wrap;rounded=0;" vertex="1" parent="1">
          <mxGeometry x="564" y="1301.17" width="60" height="30" as="geometry" />
        </mxCell>
        <mxCell id="2m3MYsOcYt7blPg2YDqS-181" value="Text" style="text;html=1;align=center;verticalAlign=middle;whiteSpace=wrap;rounded=0;" vertex="1" parent="1">
          <mxGeometry x="564" y="1360" width="60" height="30" as="geometry" />
        </mxCell>
        <mxCell id="2m3MYsOcYt7blPg2YDqS-183" value="button" style="text;html=1;align=center;verticalAlign=middle;whiteSpace=wrap;rounded=0;" vertex="1" parent="1">
          <mxGeometry x="302.5" y="1472.3400000000001" width="60" height="18.83" as="geometry" />
        </mxCell>
        <mxCell id="2m3MYsOcYt7blPg2YDqS-184" value="button" style="text;html=1;align=center;verticalAlign=middle;whiteSpace=wrap;rounded=0;" vertex="1" parent="1">
          <mxGeometry x="422.5" y="1466.76" width="60" height="30" as="geometry" />
        </mxCell>
        <mxCell id="2m3MYsOcYt7blPg2YDqS-185" value="" style="rounded=1;whiteSpace=wrap;html=1;fillColor=none;" vertex="1" parent="1">
          <mxGeometry x="404.5" y="1470.17" width="96" height="30" as="geometry" />
        </mxCell>
        <mxCell id="2m3MYsOcYt7blPg2YDqS-186" value="" style="rounded=1;whiteSpace=wrap;html=1;fillColor=none;" vertex="1" parent="1">
          <mxGeometry x="282.5" y="1470.17" width="96" height="30" as="geometry" />
        </mxCell>
        <mxCell id="2m3MYsOcYt7blPg2YDqS-187" value="" style="rounded=1;whiteSpace=wrap;html=1;glass=0;shadow=0;perimeterSpacing=1;" vertex="1" parent="1">
          <mxGeometry x="110" y="1611.17" width="620" height="390" as="geometry" />
        </mxCell>
        <mxCell id="2m3MYsOcYt7blPg2YDqS-188" value="" style="endArrow=none;html=1;rounded=0;exitX=0.169;exitY=0;exitDx=0;exitDy=0;exitPerimeter=0;entryX=0.172;entryY=1.003;entryDx=0;entryDy=0;entryPerimeter=0;" edge="1" parent="1">
          <mxGeometry width="50" height="50" relative="1" as="geometry">
            <mxPoint x="245" y="1611.17" as="sourcePoint" />
            <mxPoint x="246.86" y="2002.3400000000001" as="targetPoint" />
          </mxGeometry>
        </mxCell>
        <mxCell id="2m3MYsOcYt7blPg2YDqS-189" value="" style="endArrow=none;html=1;rounded=0;exitX=0.169;exitY=0;exitDx=0;exitDy=0;exitPerimeter=0;entryX=0.172;entryY=1.003;entryDx=0;entryDy=0;entryPerimeter=0;" edge="1" parent="1">
          <mxGeometry width="50" height="50" relative="1" as="geometry">
            <mxPoint x="545" y="1610" as="sourcePoint" />
            <mxPoint x="546.86" y="2001.17" as="targetPoint" />
          </mxGeometry>
        </mxCell>
        <mxCell id="2m3MYsOcYt7blPg2YDqS-190" value="company name" style="text;html=1;align=center;verticalAlign=middle;whiteSpace=wrap;rounded=0;" vertex="1" parent="1">
          <mxGeometry x="135" y="1641.17" width="100" height="30" as="geometry" />
        </mxCell>
        <mxCell id="2m3MYsOcYt7blPg2YDqS-191" value="Text" style="text;html=1;align=center;verticalAlign=middle;whiteSpace=wrap;rounded=0;" vertex="1" parent="1">
          <mxGeometry x="145" y="1681.17" width="60" height="30" as="geometry" />
        </mxCell>
        <mxCell id="2m3MYsOcYt7blPg2YDqS-192" value="Text" style="text;html=1;align=center;verticalAlign=middle;whiteSpace=wrap;rounded=0;" vertex="1" parent="1">
          <mxGeometry x="145" y="1801.17" width="60" height="30" as="geometry" />
        </mxCell>
        <mxCell id="2m3MYsOcYt7blPg2YDqS-193" value="Text" style="text;html=1;align=center;verticalAlign=middle;whiteSpace=wrap;rounded=0;" vertex="1" parent="1">
          <mxGeometry x="145" y="1761.17" width="60" height="30" as="geometry" />
        </mxCell>
        <mxCell id="2m3MYsOcYt7blPg2YDqS-194" value="Text" style="text;html=1;align=center;verticalAlign=middle;whiteSpace=wrap;rounded=0;" vertex="1" parent="1">
          <mxGeometry x="145" y="1721.17" width="60" height="30" as="geometry" />
        </mxCell>
        <mxCell id="2m3MYsOcYt7blPg2YDqS-195" style="edgeStyle=orthogonalEdgeStyle;rounded=0;orthogonalLoop=1;jettySize=auto;html=1;exitX=0.5;exitY=1;exitDx=0;exitDy=0;" edge="1" parent="1" source="2m3MYsOcYt7blPg2YDqS-192" target="2m3MYsOcYt7blPg2YDqS-192">
          <mxGeometry relative="1" as="geometry" />
        </mxCell>
        <mxCell id="2m3MYsOcYt7blPg2YDqS-196" value="Icon" style="html=1;strokeWidth=1;shadow=0;dashed=0;shape=mxgraph.ios7ui.icon;fontSize=8;fontColor=#ffffff;buttonText=;whiteSpace=wrap;align=center;" vertex="1" parent="1">
          <mxGeometry x="135" y="1686.17" width="20" height="20" as="geometry" />
        </mxCell>
        <mxCell id="2m3MYsOcYt7blPg2YDqS-197" value="Icon" style="html=1;strokeWidth=1;shadow=0;dashed=0;shape=mxgraph.ios7ui.icon;fontSize=8;fontColor=#ffffff;buttonText=;whiteSpace=wrap;align=center;" vertex="1" parent="1">
          <mxGeometry x="135" y="1806.17" width="20" height="20" as="geometry" />
        </mxCell>
        <mxCell id="2m3MYsOcYt7blPg2YDqS-198" value="Icon" style="html=1;strokeWidth=1;shadow=0;dashed=0;shape=mxgraph.ios7ui.icon;fontSize=8;fontColor=#ffffff;buttonText=;whiteSpace=wrap;align=center;" vertex="1" parent="1">
          <mxGeometry x="135" y="1726.17" width="20" height="20" as="geometry" />
        </mxCell>
        <mxCell id="2m3MYsOcYt7blPg2YDqS-199" value="Icon" style="html=1;strokeWidth=1;shadow=0;dashed=0;shape=mxgraph.ios7ui.icon;fontSize=8;fontColor=#ffffff;buttonText=;whiteSpace=wrap;align=center;" vertex="1" parent="1">
          <mxGeometry x="135" y="1766.17" width="20" height="20" as="geometry" />
        </mxCell>
        <mxCell id="2m3MYsOcYt7blPg2YDqS-205" value="" style="rounded=1;whiteSpace=wrap;html=1;" vertex="1" parent="1">
          <mxGeometry x="272.5" y="1641.17" width="250" height="58" as="geometry" />
        </mxCell>
        <mxCell id="2m3MYsOcYt7blPg2YDqS-209" value="Text" style="text;html=1;align=center;verticalAlign=middle;whiteSpace=wrap;rounded=0;" vertex="1" parent="1">
          <mxGeometry x="333" y="1669.68" width="60" height="30" as="geometry" />
        </mxCell>
        <mxCell id="2m3MYsOcYt7blPg2YDqS-210" value="Text" style="text;html=1;align=center;verticalAlign=middle;whiteSpace=wrap;rounded=0;" vertex="1" parent="1">
          <mxGeometry x="425" y="1648.3500000000001" width="60" height="30" as="geometry" />
        </mxCell>
        <mxCell id="2m3MYsOcYt7blPg2YDqS-211" value="Text" style="text;html=1;align=center;verticalAlign=middle;whiteSpace=wrap;rounded=0;" vertex="1" parent="1">
          <mxGeometry x="425" y="1671.17" width="60" height="30" as="geometry" />
        </mxCell>
        <mxCell id="2m3MYsOcYt7blPg2YDqS-224" value="" style="sketch=0;outlineConnect=0;fontColor=#232F3E;gradientColor=none;fillColor=#ED7100;strokeColor=none;dashed=0;verticalLabelPosition=bottom;verticalAlign=top;align=center;html=1;fontSize=12;fontStyle=0;aspect=fixed;pointerEvents=1;shape=mxgraph.aws4.container_registry_image;" vertex="1" parent="1">
          <mxGeometry x="548" y="1715.17" width="182" height="182" as="geometry" />
        </mxCell>
        <mxCell id="2m3MYsOcYt7blPg2YDqS-225" value="" style="rounded=1;whiteSpace=wrap;html=1;" vertex="1" parent="1">
          <mxGeometry x="564" y="1811.17" width="146" height="25" as="geometry" />
        </mxCell>
        <mxCell id="2m3MYsOcYt7blPg2YDqS-226" value="Text" style="text;html=1;align=center;verticalAlign=middle;whiteSpace=wrap;rounded=0;" vertex="1" parent="1">
          <mxGeometry x="569" y="1669.68" width="60" height="20" as="geometry" />
        </mxCell>
        <mxCell id="2m3MYsOcYt7blPg2YDqS-227" value="" style="rounded=1;whiteSpace=wrap;html=1;" vertex="1" parent="1">
          <mxGeometry x="564" y="1754.17" width="150" height="26" as="geometry" />
        </mxCell>
        <mxCell id="2m3MYsOcYt7blPg2YDqS-228" value="" style="rounded=1;whiteSpace=wrap;html=1;" vertex="1" parent="1">
          <mxGeometry x="564" y="1693.01" width="150" height="30" as="geometry" />
        </mxCell>
        <mxCell id="2m3MYsOcYt7blPg2YDqS-229" value="Text field" style="text;html=1;align=center;verticalAlign=middle;whiteSpace=wrap;rounded=0;" vertex="1" parent="1">
          <mxGeometry x="607" y="1754.17" width="60" height="30" as="geometry" />
        </mxCell>
        <mxCell id="2m3MYsOcYt7blPg2YDqS-230" value="Text field" style="text;html=1;align=center;verticalAlign=middle;whiteSpace=wrap;rounded=0;" vertex="1" parent="1">
          <mxGeometry x="605" y="1696.17" width="60" height="30" as="geometry" />
        </mxCell>
        <mxCell id="2m3MYsOcYt7blPg2YDqS-231" value="" style="rounded=1;whiteSpace=wrap;html=1;" vertex="1" parent="1">
          <mxGeometry x="582" y="1950.17" width="96" height="30" as="geometry" />
        </mxCell>
        <mxCell id="2m3MYsOcYt7blPg2YDqS-232" value="button" style="text;html=1;align=center;verticalAlign=middle;whiteSpace=wrap;rounded=0;" vertex="1" parent="1">
          <mxGeometry x="595" y="1951.17" width="60" height="30" as="geometry" />
        </mxCell>
        <mxCell id="2m3MYsOcYt7blPg2YDqS-245" value="" style="rounded=1;whiteSpace=wrap;html=1;" vertex="1" parent="1">
          <mxGeometry x="581" y="1628.03" width="93" height="20.32" as="geometry" />
        </mxCell>
        <mxCell id="2m3MYsOcYt7blPg2YDqS-246" value="Text" style="text;html=1;align=center;verticalAlign=middle;whiteSpace=wrap;rounded=0;" vertex="1" parent="1">
          <mxGeometry x="595" y="1622" width="60" height="30" as="geometry" />
        </mxCell>
        <mxCell id="2m3MYsOcYt7blPg2YDqS-247" value="Text" style="text;html=1;align=center;verticalAlign=middle;whiteSpace=wrap;rounded=0;" vertex="1" parent="1">
          <mxGeometry x="570" y="1727.17" width="60" height="30" as="geometry" />
        </mxCell>
        <mxCell id="2m3MYsOcYt7blPg2YDqS-249" value="Text field" style="text;html=1;align=center;verticalAlign=middle;whiteSpace=wrap;rounded=0;" vertex="1" parent="1">
          <mxGeometry x="605" y="1808.67" width="60" height="30" as="geometry" />
        </mxCell>
        <mxCell id="2m3MYsOcYt7blPg2YDqS-251" value="Text" style="text;html=1;align=center;verticalAlign=middle;whiteSpace=wrap;rounded=0;" vertex="1" parent="1">
          <mxGeometry x="564" y="1791.17" width="60" height="30" as="geometry" />
        </mxCell>
        <mxCell id="2m3MYsOcYt7blPg2YDqS-253" value="button" style="text;html=1;align=center;verticalAlign=middle;whiteSpace=wrap;rounded=0;" vertex="1" parent="1">
          <mxGeometry x="600" y="1868.7500000000002" width="60" height="18.83" as="geometry" />
        </mxCell>
        <mxCell id="2m3MYsOcYt7blPg2YDqS-254" value="button" style="text;html=1;align=center;verticalAlign=middle;whiteSpace=wrap;rounded=0;" vertex="1" parent="1">
          <mxGeometry x="600" y="1910" width="60" height="30" as="geometry" />
        </mxCell>
        <mxCell id="2m3MYsOcYt7blPg2YDqS-255" value="" style="rounded=1;whiteSpace=wrap;html=1;fillColor=none;" vertex="1" parent="1">
          <mxGeometry x="582" y="1910" width="96" height="30" as="geometry" />
        </mxCell>
        <mxCell id="2m3MYsOcYt7blPg2YDqS-256" value="" style="rounded=1;whiteSpace=wrap;html=1;fillColor=none;" vertex="1" parent="1">
          <mxGeometry x="581" y="1863.17" width="96" height="30" as="geometry" />
        </mxCell>
        <mxCell id="2m3MYsOcYt7blPg2YDqS-260" value="Text" style="text;html=1;align=center;verticalAlign=middle;whiteSpace=wrap;rounded=0;" vertex="1" parent="1">
          <mxGeometry x="330.75" y="1648.35" width="60" height="30" as="geometry" />
        </mxCell>
        <mxCell id="2m3MYsOcYt7blPg2YDqS-264" value="Icon" style="html=1;strokeWidth=1;shadow=0;dashed=0;shape=mxgraph.ios7ui.icon;fontSize=8;fontColor=#ffffff;buttonText=;whiteSpace=wrap;align=center;" vertex="1" parent="1">
          <mxGeometry x="301.25" y="1661.17" width="20" height="20" as="geometry" />
        </mxCell>
        <mxCell id="2m3MYsOcYt7blPg2YDqS-302" value="" style="rounded=1;whiteSpace=wrap;html=1;glass=0;shadow=0;perimeterSpacing=1;" vertex="1" parent="1">
          <mxGeometry x="110" y="2101.17" width="620" height="390" as="geometry" />
        </mxCell>
        <mxCell id="2m3MYsOcYt7blPg2YDqS-303" value="" style="endArrow=none;html=1;rounded=0;exitX=0.169;exitY=0;exitDx=0;exitDy=0;exitPerimeter=0;entryX=0.172;entryY=1.003;entryDx=0;entryDy=0;entryPerimeter=0;" edge="1" parent="1">
          <mxGeometry width="50" height="50" relative="1" as="geometry">
            <mxPoint x="245" y="2101.17" as="sourcePoint" />
            <mxPoint x="246.86" y="2492.34" as="targetPoint" />
          </mxGeometry>
        </mxCell>
        <mxCell id="2m3MYsOcYt7blPg2YDqS-304" value="" style="endArrow=none;html=1;rounded=0;exitX=0.169;exitY=0;exitDx=0;exitDy=0;exitPerimeter=0;entryX=0.172;entryY=1.003;entryDx=0;entryDy=0;entryPerimeter=0;" edge="1" parent="1">
          <mxGeometry width="50" height="50" relative="1" as="geometry">
            <mxPoint x="545" y="2100" as="sourcePoint" />
            <mxPoint x="546.86" y="2491.17" as="targetPoint" />
          </mxGeometry>
        </mxCell>
        <mxCell id="2m3MYsOcYt7blPg2YDqS-305" value="company name" style="text;html=1;align=center;verticalAlign=middle;whiteSpace=wrap;rounded=0;" vertex="1" parent="1">
          <mxGeometry x="135" y="2131.17" width="100" height="30" as="geometry" />
        </mxCell>
        <mxCell id="2m3MYsOcYt7blPg2YDqS-306" value="Text" style="text;html=1;align=center;verticalAlign=middle;whiteSpace=wrap;rounded=0;" vertex="1" parent="1">
          <mxGeometry x="145" y="2171.17" width="60" height="30" as="geometry" />
        </mxCell>
        <mxCell id="2m3MYsOcYt7blPg2YDqS-307" value="Text" style="text;html=1;align=center;verticalAlign=middle;whiteSpace=wrap;rounded=0;" vertex="1" parent="1">
          <mxGeometry x="145" y="2291.17" width="60" height="30" as="geometry" />
        </mxCell>
        <mxCell id="2m3MYsOcYt7blPg2YDqS-308" value="Text" style="text;html=1;align=center;verticalAlign=middle;whiteSpace=wrap;rounded=0;" vertex="1" parent="1">
          <mxGeometry x="145" y="2251.17" width="60" height="30" as="geometry" />
        </mxCell>
        <mxCell id="2m3MYsOcYt7blPg2YDqS-309" value="Text" style="text;html=1;align=center;verticalAlign=middle;whiteSpace=wrap;rounded=0;" vertex="1" parent="1">
          <mxGeometry x="145" y="2211.17" width="60" height="30" as="geometry" />
        </mxCell>
        <mxCell id="2m3MYsOcYt7blPg2YDqS-310" style="edgeStyle=orthogonalEdgeStyle;rounded=0;orthogonalLoop=1;jettySize=auto;html=1;exitX=0.5;exitY=1;exitDx=0;exitDy=0;" edge="1" parent="1" source="2m3MYsOcYt7blPg2YDqS-307" target="2m3MYsOcYt7blPg2YDqS-307">
          <mxGeometry relative="1" as="geometry" />
        </mxCell>
        <mxCell id="2m3MYsOcYt7blPg2YDqS-311" value="Icon" style="html=1;strokeWidth=1;shadow=0;dashed=0;shape=mxgraph.ios7ui.icon;fontSize=8;fontColor=#ffffff;buttonText=;whiteSpace=wrap;align=center;" vertex="1" parent="1">
          <mxGeometry x="135" y="2176.17" width="20" height="20" as="geometry" />
        </mxCell>
        <mxCell id="2m3MYsOcYt7blPg2YDqS-312" value="Icon" style="html=1;strokeWidth=1;shadow=0;dashed=0;shape=mxgraph.ios7ui.icon;fontSize=8;fontColor=#ffffff;buttonText=;whiteSpace=wrap;align=center;" vertex="1" parent="1">
          <mxGeometry x="135" y="2296.17" width="20" height="20" as="geometry" />
        </mxCell>
        <mxCell id="2m3MYsOcYt7blPg2YDqS-313" value="Icon" style="html=1;strokeWidth=1;shadow=0;dashed=0;shape=mxgraph.ios7ui.icon;fontSize=8;fontColor=#ffffff;buttonText=;whiteSpace=wrap;align=center;" vertex="1" parent="1">
          <mxGeometry x="135" y="2216.17" width="20" height="20" as="geometry" />
        </mxCell>
        <mxCell id="2m3MYsOcYt7blPg2YDqS-314" value="Icon" style="html=1;strokeWidth=1;shadow=0;dashed=0;shape=mxgraph.ios7ui.icon;fontSize=8;fontColor=#ffffff;buttonText=;whiteSpace=wrap;align=center;" vertex="1" parent="1">
          <mxGeometry x="135" y="2256.17" width="20" height="20" as="geometry" />
        </mxCell>
        <mxCell id="2m3MYsOcYt7blPg2YDqS-315" value="" style="rounded=1;whiteSpace=wrap;html=1;" vertex="1" parent="1">
          <mxGeometry x="272.5" y="2131.17" width="250" height="58" as="geometry" />
        </mxCell>
        <mxCell id="2m3MYsOcYt7blPg2YDqS-316" value="Text" style="text;html=1;align=center;verticalAlign=middle;whiteSpace=wrap;rounded=0;" vertex="1" parent="1">
          <mxGeometry x="297.5" y="2159.17" width="60" height="30" as="geometry" />
        </mxCell>
        <mxCell id="2m3MYsOcYt7blPg2YDqS-317" value="Text" style="text;html=1;align=center;verticalAlign=middle;whiteSpace=wrap;rounded=0;" vertex="1" parent="1">
          <mxGeometry x="425" y="2138.3500000000004" width="60" height="30" as="geometry" />
        </mxCell>
        <mxCell id="2m3MYsOcYt7blPg2YDqS-318" value="Text" style="text;html=1;align=center;verticalAlign=middle;whiteSpace=wrap;rounded=0;" vertex="1" parent="1">
          <mxGeometry x="425" y="2161.17" width="60" height="30" as="geometry" />
        </mxCell>
        <mxCell id="2m3MYsOcYt7blPg2YDqS-319" value="" style="sketch=0;outlineConnect=0;fontColor=#232F3E;gradientColor=none;fillColor=#ED7100;strokeColor=none;dashed=0;verticalLabelPosition=bottom;verticalAlign=top;align=center;html=1;fontSize=12;fontStyle=0;aspect=fixed;pointerEvents=1;shape=mxgraph.aws4.container_registry_image;" vertex="1" parent="1">
          <mxGeometry x="548" y="2205.17" width="182" height="182" as="geometry" />
        </mxCell>
        <mxCell id="2m3MYsOcYt7blPg2YDqS-326" value="" style="rounded=1;whiteSpace=wrap;html=1;" vertex="1" parent="1">
          <mxGeometry x="582" y="2440.17" width="96" height="30" as="geometry" />
        </mxCell>
        <mxCell id="2m3MYsOcYt7blPg2YDqS-327" value="button" style="text;html=1;align=center;verticalAlign=middle;whiteSpace=wrap;rounded=0;" vertex="1" parent="1">
          <mxGeometry x="595" y="2441.17" width="60" height="30" as="geometry" />
        </mxCell>
        <mxCell id="2m3MYsOcYt7blPg2YDqS-337" value="Text" style="text;html=1;align=center;verticalAlign=middle;whiteSpace=wrap;rounded=0;" vertex="1" parent="1">
          <mxGeometry x="300" y="2131.17" width="50" height="38.83" as="geometry" />
        </mxCell>
      </root>
    </mxGraphModel>
  </diagram>
</mxfile>
